<?xml version="1.0" standalone="no"?>
<!DOCTYPE svg PUBLIC "-//W3C//DTD SVG 20010904//EN"
 "http://www.w3.org/TR/2001/REC-SVG-20010904/DTD/svg10.dtd">
<svg version="1.0" xmlns="http://www.w3.org/2000/svg"
 width="400.000000pt" height="400.000000pt" viewBox="0 0 400.000000 400.000000"
 preserveAspectRatio="xMidYMid meet">
<metadata>
Created by potrace 1.14, written by Peter Selinger 2001-2017
</metadata>
<g transform="translate(0.000000,400.000000) scale(0.100000,-0.100000)"
fill="#000000" stroke="none">
<path d="M3020 3959 c0 -26 -74 -130 -97 -135 -34 -9 -78 2 -112 27 -26 19
-37 21 -104 14 l-75 -7 -22 -54 c-25 -61 -60 -94 -99 -94 -32 0 -121 31 -121
42 0 4 -8 8 -17 8 -14 0 -13 -3 6 -16 12 -9 36 -29 52 -45 16 -15 45 -31 66
-35 32 -6 39 -3 62 22 17 21 23 23 17 9 -4 -11 -10 -33 -12 -50 -3 -16 -8 -41
-10 -55 -5 -24 -5 -24 15 -6 18 16 21 17 21 3 0 -9 5 -19 10 -22 15 -9 68 4
85 22 8 8 15 10 15 4 0 -6 11 -7 29 -1 36 10 121 4 134 -9 19 -19 48 -12 78
18 16 16 29 34 29 39 0 5 7 12 15 15 8 4 23 24 33 46 17 35 18 42 5 52 -17 15
-10 55 16 84 18 20 51 100 51 123 0 7 -14 12 -35 12 -19 0 -35 -5 -35 -11z"/>
<path d="M3337 3526 c-30 -24 -35 -53 -12 -62 8 -4 12 -10 9 -15 -3 -5 1 -9 9
-9 8 0 34 -11 58 -24 57 -31 129 -43 129 -21 0 8 5 15 10 15 15 0 12 16 -10
64 -23 53 -39 61 -125 70 -31 3 -47 -2 -68 -18z"/>
<path d="M644 2489 c-9 -15 -2 -18 20 -9 17 6 18 7 3 13 -9 3 -19 2 -23 -4z"/>
<path d="M710 2444 c0 -9 41 -44 51 -44 4 0 15 -3 24 -7 15 -5 16 -3 6 15 -7
12 -20 22 -31 22 -10 0 -22 5 -25 10 -7 11 -25 14 -25 4z"/>
<path d="M680 2380 c0 -11 7 -23 15 -26 8 -4 12 -11 8 -18 -4 -8 -3 -8 6 0 8
8 9 18 2 37 -12 32 -31 36 -31 7z"/>
<path d="M760 2370 c0 -5 5 -10 10 -10 6 0 10 -12 11 -27 0 -16 3 -22 6 -15 7
18 -5 62 -17 62 -6 0 -10 -4 -10 -10z"/>
<path d="M631 2284 c0 -11 3 -14 6 -6 3 7 2 16 -1 19 -3 4 -6 -2 -5 -13z"/>
<path d="M603 2248 c-19 -25 -24 -38 -14 -38 11 0 35 39 28 46 -2 3 -9 -1 -14
-8z"/>
<path d="M872 2223 c2 -10 13 -19 26 -21 30 -5 28 12 -4 27 -22 10 -25 9 -22
-6z"/>
<path d="M630 2179 c0 -5 5 -7 10 -4 6 3 10 8 10 11 0 2 -4 4 -10 4 -5 0 -10
-5 -10 -11z"/>
<path d="M859 2137 c-9 -12 -18 -49 -21 -82 -6 -56 -5 -58 8 -30 7 17 13 40
14 53 0 25 21 52 39 52 6 0 11 -5 11 -10 0 -6 20 -25 45 -42 25 -17 47 -40 51
-50 7 -22 30 -24 38 -2 10 26 -13 55 -61 76 -24 11 -53 28 -64 39 -25 25 -40
24 -60 -4z"/>
<path d="M541 2114 c-29 -48 -27 -49 14 -8 39 38 41 44 21 44 -8 0 -23 -16
-35 -36z"/>
<path d="M811 2064 c0 -11 3 -14 6 -6 3 7 2 16 -1 19 -3 4 -6 -2 -5 -13z"/>
<path d="M621 2048 c8 -7 20 -20 27 -28 11 -13 12 -12 6 5 -8 21 -23 35 -38
35 -6 0 -3 -6 5 -12z"/>
<path d="M210 2042 c0 -12 19 -26 26 -19 2 2 -2 10 -11 17 -9 8 -15 8 -15 2z"/>
<path d="M280 2032 c0 -14 41 -26 67 -19 11 3 6 5 -12 6 -17 0 -36 6 -43 13
-9 9 -12 9 -12 0z"/>
<path d="M809 2024 c-1 -26 -6 -54 -14 -84 -7 -24 -7 -24 11 -8 13 13 17 29
15 60 -3 45 -10 65 -12 32z"/>
<path d="M1081 2015 c9 -11 19 -27 22 -35 5 -13 6 -13 6 1 1 9 -9 24 -21 35
-23 19 -23 19 -7 -1z"/>
<path d="M3075 2019 c-33 -4 -82 -14 -110 -22 -27 -7 -55 -12 -61 -10 -6 2
-31 -5 -56 -16 -25 -10 -79 -22 -121 -26 -42 -4 -75 -11 -72 -14 2 -4 34 -4
70 0 37 5 70 8 73 8 4 -1 9 -1 12 0 3 1 37 4 75 7 121 8 140 11 175 27 48 23
205 30 221 11 6 -8 20 -14 29 -14 15 0 17 5 11 28 -7 27 -8 27 -97 28 -49 1
-116 -2 -149 -7z"/>
<path d="M1425 1935 c-28 -24 -47 -44 -44 -45 3 0 20 12 37 28 16 15 41 35 54
44 12 9 18 17 13 18 -6 0 -33 -20 -60 -45z"/>
<path d="M1140 1964 c0 -3 5 -14 11 -25 11 -22 31 -17 23 6 -5 13 -34 30 -34
19z"/>
<path d="M408 1942 c-27 -16 -37 -32 -20 -32 11 1 68 50 57 50 -5 0 -22 -8
-37 -18z"/>
<path d="M760 1786 c0 -9 5 -16 10 -16 6 0 10 4 10 9 0 6 -4 13 -10 16 -5 3
-10 -1 -10 -9z"/>
<path d="M830 1772 c0 -5 9 -21 20 -35 11 -14 20 -30 20 -35 0 -6 4 -13 9 -16
5 -4 7 4 3 16 -6 24 -52 86 -52 70z"/>
<path d="M796 1731 c-7 -10 22 -37 30 -28 9 8 -3 37 -15 37 -5 0 -12 -4 -15
-9z"/>
<path d="M1188 1733 c7 -3 16 -2 19 1 4 3 -2 6 -13 5 -11 0 -14 -3 -6 -6z"/>
<path d="M1303 1728 c-24 -32 -24 -41 0 -19 15 14 27 26 27 28 0 8 -19 2 -27
-9z"/>
<path d="M1130 1710 c20 -13 63 -13 55 0 -3 6 -21 10 -38 10 -24 0 -28 -3 -17
-10z"/>
<path d="M830 1569 c0 -44 -14 -65 -60 -83 -22 -9 -40 -20 -40 -25 0 -5 -3
-18 -6 -28 -6 -15 -4 -16 7 -5 18 17 29 15 29 -4 0 -12 5 -10 20 9 11 14 20
31 20 39 0 18 36 39 55 32 19 -8 20 16 3 63 -15 41 -28 43 -28 2z"/>
<path d="M922 1460 c0 -14 2 -19 5 -12 2 6 2 18 0 25 -3 6 -5 1 -5 -13z"/>
<path d="M310 1420 c0 -5 5 -10 11 -10 5 0 7 5 4 10 -3 6 -8 10 -11 10 -2 0
-4 -4 -4 -10z"/>
<path d="M3566 1411 c-4 -7 -5 -15 -2 -18 9 -9 19 4 14 18 -4 11 -6 11 -12 0z"/>
<path d="M345 1380 c10 -11 23 -20 28 -20 6 0 2 9 -8 20 -10 11 -23 20 -28 20
-6 0 -2 -9 8 -20z"/>
<path d="M3580 1385 c-8 -9 -8 -15 -2 -15 12 0 26 19 19 26 -2 2 -10 -2 -17
-11z"/>
<path d="M3780 1382 c0 -4 5 -13 12 -20 7 -7 8 -12 2 -12 -6 0 -15 5 -22 12
-7 7 -12 8 -12 4 0 -5 -7 -2 -16 5 -15 12 -16 11 -10 -9 5 -13 3 -22 -3 -22
-6 0 -11 -8 -11 -17 0 -15 2 -16 10 -3 9 13 10 13 10 0 0 -10 3 -11 8 -4 4 6
16 11 27 11 11 0 23 -5 28 -11 5 -8 10 -6 17 4 6 10 10 11 10 3 0 -7 7 -13 16
-13 8 0 12 5 9 10 -3 6 -1 10 4 10 22 0 10 21 -21 40 -34 21 -58 26 -58 12z"/>
<path d="M303 1343 c9 -2 25 -2 35 0 9 3 1 5 -18 5 -19 0 -27 -2 -17 -5z"/>
<path d="M378 1322 c-7 -29 2 -49 29 -61 14 -6 27 -10 29 -9 1 2 -10 22 -25
46 -22 32 -30 37 -33 24z"/>
<path d="M1232 1328 c-7 -9 -16 -32 -19 -52 -3 -20 -10 -36 -14 -36 -5 0 -9
-7 -9 -15 0 -26 40 -16 87 22 32 26 59 39 92 44 44 6 44 6 9 8 -20 0 -39 5
-42 10 -7 10 -56 -9 -56 -21 0 -5 -6 -8 -14 -8 -9 0 -16 12 -18 32 -3 27 -5
29 -16 16z"/>
<path d="M430 1322 c0 -28 109 -47 125 -22 4 6 -10 10 -34 10 -22 0 -51 4 -65
10 -14 5 -26 6 -26 2z"/>
<path d="M3680 1312 c0 -6 9 -12 20 -15 11 -3 20 -3 20 -1 0 2 -9 8 -20 14
-11 6 -20 7 -20 2z"/>
<path d="M3560 1300 c0 -5 5 -10 10 -10 6 0 10 5 10 10 0 6 -4 10 -10 10 -5 0
-10 -4 -10 -10z"/>
<path d="M952 1195 c0 -16 2 -22 5 -12 2 9 2 23 0 30 -3 6 -5 -1 -5 -18z"/>
<path d="M981 1194 c0 -11 3 -14 6 -6 3 7 2 16 -1 19 -3 4 -6 -2 -5 -13z"/>
<path d="M1175 1172 c-11 -11 -44 -24 -74 -30 -29 -7 -67 -23 -83 -37 -37 -32
-66 -39 -109 -27 -26 7 -33 13 -31 28 2 10 8 21 13 22 5 2 9 9 9 16 0 8 -10
11 -30 8 -17 -2 -36 0 -43 5 -6 6 -20 13 -30 16 -15 6 -16 3 -7 -13 30 -55
-18 -69 -71 -20 -33 30 -53 33 -29 5 20 -24 -9 -51 -38 -36 -29 16 -41 13 -18
-4 15 -11 16 -15 5 -19 -43 -13 -51 -17 -46 -23 4 -3 27 0 52 7 25 7 48 11 51
8 9 -10 -8 -38 -25 -39 -9 0 -11 -3 -5 -5 6 -3 -21 -37 -60 -76 l-71 -71 -6
49 -6 49 -1 -52 c-2 -36 -6 -53 -15 -53 -10 0 -12 15 -9 59 2 35 0 61 -6 65
-7 4 -9 -5 -5 -27 3 -24 0 -38 -12 -50 -23 -23 -34 -21 -41 7 -6 27 -29 25
-50 -2 -7 -10 -16 -12 -25 -7 -21 13 -53 14 -61 1 -14 -20 -8 -36 12 -36 12 0
20 -7 20 -16 0 -12 -6 -15 -22 -10 -13 3 -27 6 -32 6 -4 0 -6 7 -2 15 3 10 -1
15 -12 15 -10 0 -23 5 -30 12 -8 8 -12 8 -12 1 0 -6 16 -23 36 -38 34 -26 34
-28 20 -51 -9 -13 -16 -26 -16 -29 0 -12 35 -3 75 21 25 14 52 24 62 22 12 -2
0 -13 -36 -31 -30 -15 -46 -27 -35 -27 10 0 34 9 52 20 18 11 42 20 55 20 12
0 36 9 54 19 30 19 54 40 157 137 40 38 50 42 115 48 39 4 75 4 81 1 5 -3 18
-2 27 3 28 14 83 23 83 13 0 -5 -20 -19 -46 -31 -25 -12 -52 -33 -61 -46 -13
-21 -21 -23 -54 -18 -42 7 -94 -9 -103 -32 -7 -19 -46 -18 -46 1 0 8 -4 15
-10 15 -5 0 -10 -16 -10 -35 0 -26 -6 -39 -25 -51 -30 -19 -33 -38 -6 -29 33
10 33 -13 1 -30 -17 -9 -30 -24 -30 -34 0 -22 32 -61 50 -61 7 0 1 9 -14 21
-34 27 -34 55 2 67 21 7 33 4 57 -12 17 -12 31 -24 33 -28 2 -5 9 -8 16 -8 7
0 18 -12 24 -26 9 -18 19 -24 34 -22 37 5 35 -29 -1 -37 -17 -4 -31 -10 -31
-15 0 -4 19 -4 42 1 23 6 53 7 67 4 21 -4 33 2 61 30 18 19 31 37 28 41 -4 3
-19 -8 -35 -26 -20 -22 -33 -29 -46 -24 -14 5 -15 9 -6 20 14 17 -2 19 -20 2
-20 -21 -54 27 -46 66 l6 31 -19 -24 c-14 -17 -25 -22 -40 -16 -27 8 -29 25
-3 25 10 0 24 7 32 16 11 13 9 14 -14 9 -16 -5 -27 -3 -27 3 0 13 28 42 40 42
5 0 12 10 16 23 7 21 7 21 14 2 5 -13 1 -24 -9 -33 -14 -10 -12 -11 12 -6 16
4 27 2 27 -4 0 -6 15 -15 34 -22 19 -6 36 -19 39 -30 5 -21 57 -30 57 -10 0 6
-9 10 -19 10 -25 0 -35 17 -33 52 3 33 -4 35 -33 8 l-22 -21 -16 23 c-10 13
-23 32 -31 42 -13 19 -14 19 -36 -7 -32 -36 -41 -34 -23 6 30 66 112 87 165
42 16 -14 35 -25 42 -25 7 0 23 -11 36 -25 13 -14 34 -25 47 -25 33 0 29 13
-9 29 l-33 14 75 12 c107 16 110 18 110 78 0 58 -8 60 -12 2 -2 -39 -20 -64
-45 -65 -21 0 -15 21 7 27 11 3 18 9 15 13 -3 5 -1 11 5 15 5 3 10 12 10 18 0
7 -7 4 -14 -5 -19 -25 -36 -22 -73 13 -37 34 -45 28 -11 -8 17 -19 19 -26 9
-36 -10 -9 -18 -5 -42 21 -33 37 -37 60 -11 68 9 3 31 12 47 21 17 9 44 23 60
31 30 15 47 33 40 40 -2 2 -17 -5 -34 -17 -41 -29 -133 -71 -143 -65 -11 7
-10 24 1 24 6 0 36 16 68 35 39 24 70 35 96 35 24 0 40 5 43 15 4 8 12 15 20
15 8 0 14 7 14 15 0 20 -11 19 -35 -3z m-315 -42 c0 -13 -11 -13 -30 0 -12 8
-11 10 8 10 12 0 22 -4 22 -10z m-105 -33 c11 -3 3 -5 -19 -6 -34 -1 -37 1
-26 14 7 9 16 12 19 7 3 -5 15 -12 26 -15z m70 -6 c-3 -6 -14 -11 -23 -11 -13
0 -13 2 4 14 21 15 30 14 19 -3z m55 -21 c14 -5 19 -9 10 -10 -48 -8 -60 -6
-60 6 0 15 12 16 50 4z m-146 -15 c-6 -16 -24 -21 -24 -7 0 11 11 22 21 22 5
0 6 -7 3 -15z m237 -67 c10 -13 18 -27 19 -32 0 -5 8 -15 18 -22 12 -9 14 -16
6 -24 -14 -14 -79 -3 -95 17 -10 11 -10 14 2 11 9 -2 15 7 16 27 2 43 2 45 9
45 3 0 14 -10 25 -22z m-41 -5 c0 -14 -34 -43 -52 -43 -22 0 -23 8 -1 32 15
17 53 25 53 11z m160 -47 c0 -3 -4 -8 -10 -11 -5 -3 -10 -1 -10 4 0 6 5 11 10
11 6 0 10 -2 10 -4z m-672 -18 c-2 -6 -10 -14 -16 -16 -7 -2 -10 2 -6 12 7 18
28 22 22 4z m-93 -8 c3 -5 2 -10 -4 -10 -5 0 -13 5 -16 10 -3 6 -2 10 4 10 5
0 13 -4 16 -10z m735 -10 c-8 -5 -22 -9 -30 -9 -10 0 -8 3 5 9 27 12 43 12 25
0z m-580 -26 c0 -8 -10 -14 -25 -14 -38 0 -34 24 5 27 11 1 20 -4 20 -13z
m223 -19 c-3 -9 -8 -14 -10 -11 -3 3 -2 9 2 15 9 16 15 13 8 -4z m-36 -17 c-4
-15 1 -30 15 -45 24 -26 6 -32 -24 -9 -21 16 -22 29 -6 56 17 26 22 25 15 -2z
m99 -145 c-7 -7 -26 7 -26 19 0 6 6 6 15 -2 9 -7 13 -15 11 -17z"/>
<path d="M990 920 c0 -5 5 -10 11 -10 5 0 7 5 4 10 -3 6 -8 10 -11 10 -2 0 -4
-4 -4 -10z"/>
<path d="M915 1150 c-3 -5 -2 -10 4 -10 5 0 13 5 16 10 3 6 2 10 -4 10 -5 0
-13 -4 -16 -10z"/>
<path d="M1410 1135 c-14 -8 -34 -15 -45 -15 -11 -1 -14 -4 -8 -7 15 -6 80 15
88 28 9 13 -6 11 -35 -6z"/>
<path d="M976 1131 c-4 -7 -14 -10 -21 -7 -7 2 -16 -1 -19 -9 -2 -7 -15 -15
-28 -18 -16 -3 -12 -5 13 -6 40 -1 74 19 67 39 -3 11 -6 11 -12 1z"/>
<path d="M660 1120 c0 -5 5 -10 10 -10 6 0 10 5 10 10 0 6 -4 10 -10 10 -5 0
-10 -4 -10 -10z"/>
<path d="M1300 1115 c-11 -13 -10 -14 4 -9 9 3 16 10 16 15 0 13 -6 11 -20 -6z"/>
<path d="M558 1079 c-24 -14 -23 -28 2 -22 11 3 20 12 20 19 0 16 0 16 -22 3z"/>
<path d="M1240 1070 c-19 -10 -46 -23 -60 -30 -14 -6 -17 -8 -7 -5 10 3 32 5
48 5 16 0 28 4 27 9 -2 5 6 17 17 25 27 21 18 19 -25 -4z"/>
<path d="M181 854 c9 -9 25 -14 35 -12 14 3 10 7 -16 16 -32 12 -34 11 -19 -4z"/>
<path d="M840 848 c-12 -22 -12 -22 6 -6 10 10 15 20 12 24 -4 3 -12 -5 -18
-18z"/>
<path d="M531 837 c-13 -21 -12 -21 5 -5 10 10 16 20 13 22 -3 3 -11 -5 -18
-17z"/>
<path d="M1200 740 c0 -11 5 -20 10 -20 6 0 10 9 10 20 0 11 -4 20 -10 20 -5
0 -10 -9 -10 -20z"/>
<path d="M1252 735 c0 -16 2 -22 5 -12 2 9 2 23 0 30 -3 6 -5 -1 -5 -18z"/>
<path d="M376 696 c-7 -38 -1 -62 19 -70 20 -7 30 12 30 60 0 34 -3 40 -21 42
-17 1 -23 -5 -28 -32z"/>
<path d="M640 672 c0 -4 9 -13 20 -20 22 -13 27 -3 8 16 -14 14 -28 16 -28 4z"/>
<path d="M1116 638 c-22 -25 -36 -80 -29 -108 6 -24 19 -25 39 -6 7 8 18 16
23 18 5 1 13 15 16 31 6 23 5 26 -10 21 -15 -6 -15 -4 -4 14 12 18 11 24 -2
37 -13 13 -17 13 -33 -7z"/>
<path d="M1023 623 c-15 -32 -17 -82 -3 -103 8 -12 10 -9 10 12 0 20 4 26 15
22 8 -4 16 -1 17 5 3 27 2 31 -7 31 -5 -1 -12 13 -15 29 l-5 31 -12 -27z"/>
<path d="M13 503 c-9 -3 -13 -33 -13 -98 l0 -94 188 5 c270 6 346 12 350 24 3
7 11 5 23 -6 11 -10 19 -12 19 -6 0 7 -5 12 -11 12 -8 0 -10 19 -6 65 4 36 3
65 -1 66 -29 3 -47 10 -65 26 -12 10 -16 11 -10 3 10 -13 5 -15 -35 -13 -26 1
-126 4 -222 6 -96 3 -182 8 -190 10 -8 3 -21 3 -27 0z"/>
</g>
</svg>
